<svg width="100" height="24" viewBox="0 0 100 24" fill="none" xmlns="http://www.w3.org/2000/svg">
<path d="M19.224 19.8376H13.7943L13.0899 18.214H6.13408L5.42969 19.8376H0L8.8049 0H10.4191L19.224 19.8376ZM7.92441 14.1402H11.2996L9.62669 9.65314L7.92441 14.1402Z" fill="white"/>
<path d="M26.2732 9.18081L32.6714 0.354244H38.5414L31.879 9.62362L39.6273 19.8376H33.64L26.2732 10.1255V19.8376H21.2251V0.354244H26.2732V9.18081Z" fill="white"/>
<path d="M58.2148 15.262H60.9443V24H55.8962V19.8376H41.6323V0.354244H46.6804V15.262H53.1667V0.354244H58.2148V15.262Z" fill="white"/>
<path d="M80.9356 19.8376H75.8874V9.68266L65.0868 20.1919H63.4725V0.354244H68.5207V10.4207L79.3213 0H80.9356V19.8376Z" fill="white"/>
<path d="M100 19.8376H94.9519V14.7306H92.9267H92.3691L89.0819 19.8376H83.4468L87.7318 13.1956C86.8514 12.5658 86.1568 11.7688 85.648 10.8044C85.1589 9.8401 84.9143 8.73801 84.9143 7.49816C84.9143 6.41574 85.1197 5.43173 85.5306 4.54613C85.9415 3.66052 86.4992 2.91267 87.2036 2.30258C87.9275 1.67282 88.7786 1.19065 89.757 0.856089C90.7353 0.521525 91.7919 0.354244 92.9267 0.354244H100V19.8376ZM92.8387 4.78229C91.9973 4.78229 91.3223 5.03813 90.8136 5.54982C90.3048 6.0615 90.0505 6.72079 90.0505 7.52768C90.0505 8.35424 90.3048 9.02337 90.8136 9.53506C91.3223 10.0467 91.9973 10.3026 92.8387 10.3026H94.9519V4.78229H92.8387Z" fill="white"/>
</svg>
